<?xml version="1.0" encoding="utf-8"?>
<!-- Generator: Adobe Illustrator 23.0.6, SVG Export Plug-In . SVG Version: 6.00 Build 0)  -->
<svg version="1.1" id="Layer_1" xmlns="http://www.w3.org/2000/svg" xmlns:xlink="http://www.w3.org/1999/xlink" x="0px" y="0px"
	 width="311.1px" height="85.2px" viewBox="0 0 311.1 85.2" style="enable-background:new 0 0 311.1 85.2;" xml:space="preserve">
<style type="text/css">
	.st0{fill:#606060;}
</style>
<g>
	<path class="st0" d="M111,37.2c0-0.1,0-0.2,0-0.3l0-0.5c-0.1-0.7-0.2-1.4-0.3-2c-0.2-1.3-0.6-2.6-1-3.9c-0.9-2.5-2.3-5-4.4-6.9
		c-4.1-3.9-9.3-5.2-14-4.9c-0.6,0-1.2,0.1-1.7,0.2c-0.3,0-0.6,0.1-0.8,0.2c-0.3,0.1-0.5,0.1-0.8,0.2c-0.3,0.1-0.6,0.2-0.8,0.2
		c-0.3,0.1-0.5,0.2-0.8,0.3c-0.5,0.2-1,0.4-1.5,0.6c-1.9,0.8-3.6,1.9-5.1,2.9l-0.5,0.4l-0.2,0.2L78.6,24L78,24.5
		c-0.3,0.3-0.7,0.6-1,0.8c-0.6,0.5-1.1,1-1.5,1.4c-0.8,0.8-1.2,1.2-1.2,1.2c0,0-0.2,0.3-0.6,0.7c-0.2,0.2-0.4,0.5-0.6,0.8l-0.8,1.1
		c-1.2,1.7-2.5,4-3.6,6.3c-1.1,2.3-2,4.5-2.7,6.2c-0.6,1.6-1,2.7-0.9,2.5c0,0,0,0.1,0,0.1c0,0,0,0,0,0c-1.1-1.3-2.2-2.6-3.4-3.9
		c-2-2.1-4.1-4.2-6.7-6c-1.1-0.8-2.3-1.5-3.5-2.1c-1.6-0.8-3.4-1.4-5.1-1.8c-0.4-0.1-0.8-0.1-1.2-0.2c-0.4-0.1-0.8-0.1-1.3-0.2
		c-0.9-0.1-1.7-0.1-2.6,0c-1.7,0.1-3.4,0.5-5,1.1c-3.2,1.2-5.9,3.4-7.7,6.3c-0.1,0.1-0.2,0.3-0.3,0.4c0-0.3,0.1-0.7,0.1-1
		c0.4-2.3,1.2-4.4,2.2-6.3c0.8-1.4,1.7-2.7,2.6-3.8c1.9-2.4,4.7-5,8.9-7c10.1-5,12.4,0.7,14,5.8c0.1,0.2,0.1,0.4,0.2,0.5
		c0.1,0.4,0.3,0.8,0.4,1.2c0.4,1.2,0.8,2.1,1.1,2.5c0.1,0.1,0.3,0.2,0.4,0.2c0.3-0.1,0.5-0.5,0.7-1.4c0.1-0.6,0.2-1.5,0.3-2.6
		c0-1.1,0-2.5-0.4-4.3c-0.2-1-0.5-2.1-1.1-3.2c-0.6-1.1-1.4-2.2-2.4-3.1c-1-0.9-2.2-1.6-3.3-2.1c-1.2-0.5-2.4-0.8-3.5-0.9
		c-2.2-0.3-4.1,0-5.5,0.2c-0.7,0.1-1.2,0.3-1.5,0.4l-0.5,0.1c0,0-0.7,0.2-1.9,0.7c-1.2,0.5-2.9,1.3-4.7,2.6
		c-1.7,1.1-3.5,2.6-5.3,4.4c-1.7,1.8-3.4,4-4.8,6.6c-1.4,2.6-2.4,5.5-2.9,8.7c-0.5,3.2-0.3,6.6,0.6,9.9c0.9,3.2,2.5,6.2,4.5,8.8
		c2,2.6,4.4,4.8,6.9,6.6c1.8,1.3,3.7,2.3,5.6,3.2c1.7,0.6,3.3,1,4.9,1.1c6,0.4,10.7-2.4,12.2-3.4c2.5-2,4.6-4.3,5.1-5.4
		c1.2-2.3,0.1-2.8,0.1-2.8s-1.5-0.7-3.8,1.6c-1.7,1.6-7.4,4.4-13.1,2.9c0,0-0.1,0-0.1,0l-0.3-0.1L44,59.8l-0.3-0.1l-0.3-0.1
		c-0.4-0.2-0.9-0.3-1.3-0.5c-0.9-0.4-1.7-0.9-2.5-1.5c-1.6-1.1-3-2.6-4.1-4.2c-1.1-1.6-1.8-3.5-2-5.3c-0.1-0.5-0.1-0.9-0.1-1.4
		c0-0.5,0.1-0.9,0.1-1.3c0.2-0.9,0.5-1.7,0.9-2.5c0.9-1.6,2.3-2.9,4.1-3.6c0.9-0.4,1.8-0.6,2.8-0.8c0.5-0.1,1-0.1,1.5-0.1
		c0.2,0,0.5,0,0.7,0.1c0.2,0,0.5,0.1,0.8,0.1l0.4,0.1l0.4,0.1c0.3,0.1,0.5,0.1,0.8,0.2c0.5,0.2,1,0.3,1.5,0.5c1,0.4,2,0.9,3,1.6
		c1.9,1.3,3.8,2.9,5.5,4.7c1.8,1.8,3.4,3.9,5.2,6l1.3,1.6l0.7,0.8l0.7,0.8l1.4,1.6c0.5,0.5,1,1,1.5,1.5c2,2,4.2,4.1,6.9,5.7
		c0.3,0.2,0.7,0.4,1,0.6c0.2,0.1,0.4,0.2,0.5,0.3l0.6,0.3c0.1,0,0.2,0.1,0.2,0.1l0.1,0.1l0.3,0.1l0.6,0.2c0.4,0.1,0.8,0.3,1.1,0.4
		c1.1,0.3,2.1,0.5,3.2,0.7c0.5,0.1,1,0.1,1.5,0.2c1.6,0.1,3.2,0.1,4.8-0.2c0.8-0.1,1.6-0.3,2.4-0.5c0.4-0.1,0.8-0.2,1.2-0.4l0.3-0.1
		l0.3-0.1c0.1-0.1,0.3-0.1,0.5-0.2c0.1-0.1,0.3-0.1,0.5-0.2c0.2-0.1,0.4-0.1,0.5-0.2c0.4-0.2,0.7-0.3,1-0.5c0.7-0.3,1.4-0.7,2-1.1
		c1.3-0.8,2.5-1.6,3.6-2.6c2.3-1.9,4.2-4.1,5.8-6.4c3.2-4.7,5-10.2,5.2-15.7c0-0.2,0-0.3,0-0.5l0-0.3l0-0.3L111,37.2z M81.4,59.3
		c-0.6-0.1-1.1-0.3-1.6-0.4c-0.3-0.1-0.5-0.2-0.8-0.3l-0.2-0.1c0,0,0,0,0,0l0,0c-0.1,0-0.2-0.1-0.4-0.2c-0.1-0.1-0.2-0.1-0.3-0.2
		C77,56,76.8,52.8,80.2,49l14.3-14.3h-9.2l-8.8,9.7c0,0-5.2,5.2-2.5,10.8c-0.4-0.4-0.9-0.8-1.3-1.2c-0.9-0.9-1.8-1.9-2.8-2.9
		l-0.7-0.7c-0.1-0.1-0.2-0.2-0.3-0.3l-0.3-0.4l0,0l-0.8-0.9c0.3-0.4,0.6-0.9,0.9-1.3c2.1-3.2,4.5-7,6.5-9.8c0.5-0.7,1-1.3,1.4-1.8
		c0.2-0.3,0.4-0.5,0.6-0.7l0.3-0.3l0.3-0.3l0.5-0.5l0.4-0.4l0.3-0.3c0,0,0.3-0.4,1-1.1c0.6-0.7,1.6-1.6,2.8-2.6l0.2-0.2l0.4-0.3
		c0.6-0.5,1.2-0.9,1.9-1.3c0.7-0.4,1.3-0.8,2.1-1.1c0.4-0.2,0.7-0.3,1.1-0.4c0.2-0.1,0.4-0.1,0.6-0.2l0.3-0.1c0.1,0,0.2,0,0.3-0.1
		c1.5-0.4,3.1-0.5,4.7-0.2c0.9,0.1,1.8,0.4,2.7,0.7c1.4,2.2,2.1,5.6-1.8,9.9L81,50.7h9.2l8.8-9.7c0,0,5.5-5.5,2.2-11.4
		c0.4,0.5,0.7,1,1,1.5c0.8,1.6,1.4,3.5,1.6,5.5c0,0.3,0.1,0.5,0.1,0.8l0,0.1l0,0.2l0,0.2l0,0.2c0,0.5,0,1-0.1,1.5
		c-0.1,1-0.3,2.1-0.5,3.1c-0.5,2.1-1.4,4.2-2.5,6.1c-1.1,2-2.5,3.8-4.2,5.4c-1.6,1.6-3.5,2.9-5.6,3.9c-0.3,0.1-0.5,0.2-0.8,0.3
		L90,58.6l-0.5,0.2l-0.4,0.2c-0.1,0-0.2,0.1-0.4,0.1c-0.3,0.1-0.5,0.2-0.8,0.2c-1,0.3-2.1,0.4-3.2,0.4
		C83.7,59.7,82.5,59.6,81.4,59.3z"/>
	<path class="st0" d="M122.5,26.9c0.1-0.4,0.2-1,0.3-1.7c0.1-0.7,0.2-1.3,0.3-1.7l0.5,17.7h4.3l7.4-17.7c-0.1,0.4-0.2,1-0.4,1.7
		c-0.1,0.7-0.3,1.3-0.3,1.7l-2.8,14.3h4.1l4.1-21.1h-6.3l-7,16.6l-0.6-16.6h-6.4l-4.1,21.1h4.1L122.5,26.9z"/>
	<path class="st0" d="M141.1,39.8c1.3,1.3,2.9,1.9,4.9,1.9c2.4,0,4.4-0.8,6.1-2.3c1-1,1.7-1.9,2-2.8h-4.2c-0.3,0.5-0.6,0.8-1,1.1
		c-0.6,0.5-1.3,0.7-2.2,0.7c-0.8,0-1.4-0.2-1.9-0.6c-0.8-0.6-1.1-1.7-0.8-3.3h10.7c0.3-1.4,0.4-2.4,0.5-3.1c0.1-1.2-0.1-2.3-0.6-3.2
		c-0.5-1-1.2-1.8-2.1-2.3c-0.9-0.5-2.1-0.7-3.4-0.7c-2.2,0-4.1,0.7-5.8,2.2c-1.7,1.4-2.7,3.5-3.3,6.2
		C139.5,36.4,139.9,38.5,141.1,39.8z M146.1,29.4c0.6-0.6,1.4-0.9,2.4-0.9c0.9,0,1.5,0.3,2,0.8c0.5,0.6,0.7,1.4,0.5,2.5h-6.3
		C144.9,30.8,145.4,30,146.1,29.4z"/>
	<path class="st0" d="M157.3,38.2c-0.2,1-0.1,1.7,0.3,2.2c0.6,0.7,1.8,1.1,3.8,1l1.9-0.1l0.6-3.1c-0.1,0-0.3,0-0.4,0
		c-0.1,0-0.3,0-0.4,0c-0.8,0-1.3-0.1-1.4-0.2c-0.1-0.2-0.1-0.5,0-1.2l1.6-8.2h2.5l0.6-2.9h-2.5l0.9-4.3h-4l-0.8,4.3h-2.2l-0.6,2.9
		h2.2L157.3,38.2z"/>
	<path class="st0" d="M169.9,41.2l1.5-7.5c0.2-1.3,0.6-2.2,1-2.8c0.8-1.1,2-1.6,3.6-1.6c0.1,0,0.3,0,0.5,0c0.2,0,0.4,0,0.7,0.1
		l0.8-4.2c-0.2,0-0.3,0-0.3,0c-0.1,0-0.1,0-0.2,0c-1.2,0-2.3,0.3-3.2,1c-0.5,0.4-1.2,1.1-2.1,2.1l0.5-2.7h-3.9l-3,15.6H169.9z"/>
	<path class="st0" d="M178.7,39.3c1,1.6,2.8,2.4,5.5,2.4s4.8-0.8,6.5-2.4c1.6-1.6,2.7-3.6,3.1-5.9c0.4-2.3,0.2-4.2-0.8-5.9
		c-1-1.6-2.8-2.5-5.5-2.5c-2.7,0-4.8,0.8-6.5,2.5c-1.6,1.7-2.7,3.6-3.1,5.9C177.4,35.7,177.7,37.7,178.7,39.3z M182.1,33.4
		c0.3-1.6,0.9-2.8,1.7-3.6c0.8-0.8,1.8-1.3,3-1.3c1.2,0,2,0.4,2.5,1.3c0.5,0.8,0.6,2.1,0.2,3.6c-0.3,1.6-0.9,2.8-1.7,3.6
		c-0.8,0.9-1.8,1.3-3,1.3c-1.2,0-2-0.4-2.5-1.3C181.8,36.2,181.8,35,182.1,33.4z"/>
	<path class="st0" d="M197.9,47.3l1.6-8.1c0.3,0.7,0.6,1.2,1,1.5c0.7,0.6,1.7,0.9,2.9,0.9c2,0,3.7-0.7,5.2-2.2
		c1.5-1.4,2.6-3.5,3.1-6.3c0.5-2.6,0.3-4.6-0.7-5.9c-1-1.4-2.4-2-4.2-2c-1.3,0-2.4,0.4-3.4,1c-0.6,0.4-1.1,0.9-1.7,1.6l0.5-2.3h-3.9
		l-4.2,21.7H197.9z M200.4,33.7c0.2-1.1,0.5-2.1,1-2.8c0.8-1.4,2-2.1,3.5-2.1c1.2,0,2,0.5,2.4,1.4c0.4,0.9,0.4,2,0.2,3.2
		c-0.3,1.5-0.8,2.6-1.6,3.5c-0.8,0.9-1.7,1.3-2.9,1.3c-0.8,0-1.4-0.2-1.9-0.6C200.3,36.8,200.1,35.6,200.4,33.7z"/>
	<path class="st0" d="M223.2,25.1c-2.7,0-4.8,0.8-6.5,2.5c-1.6,1.7-2.7,3.6-3.1,5.9c-0.4,2.3-0.2,4.2,0.8,5.9c1,1.6,2.8,2.4,5.5,2.4
		c2.7,0,4.8-0.8,6.5-2.4c1.6-1.6,2.7-3.6,3.1-5.9c0.4-2.3,0.2-4.2-0.8-5.9C227.8,25.9,225.9,25.1,223.2,25.1z M225.3,33.4
		c-0.3,1.6-0.9,2.8-1.7,3.6c-0.8,0.9-1.8,1.3-3,1.3c-1.2,0-2-0.4-2.5-1.3c-0.5-0.8-0.6-2.1-0.3-3.6c0.3-1.6,0.9-2.8,1.7-3.6
		c0.8-0.8,1.8-1.3,3-1.3c1.2,0,2,0.4,2.5,1.3C225.5,30.6,225.6,31.8,225.3,33.4z"/>
	<polygon class="st0" points="235.2,20.1 231.1,41.2 235.2,41.2 239.3,20.1 	"/>
	<polygon class="st0" points="239.2,41.2 243.3,41.2 246.4,25.6 242.2,25.6 	"/>
	<polygon class="st0" points="242.6,23.7 246.7,23.7 247.5,20 243.3,20 	"/>
	<path class="st0" d="M254.2,38.3c-0.8,0-1.3-0.1-1.4-0.2c-0.1-0.2-0.1-0.5,0-1.2l1.6-8.2h2.5l0.6-2.9h-2.5l0.8-4.3h-4l-0.8,4.3
		h-2.2l-0.6,2.9h2.2l-1.9,9.6c-0.2,1-0.1,1.7,0.3,2.2c0.6,0.7,1.8,1.1,3.8,1l1.9-0.1l0.6-3.1c-0.1,0-0.3,0-0.4,0
		C254.4,38.3,254.3,38.3,254.2,38.3z"/>
	<path class="st0" d="M270.6,26.2c-1.2-0.7-2.6-1-4.4-1c-2.6,0-4.6,0.7-6,2.1c-0.8,0.9-1.5,2-1.8,3.4h3.9c0.2-0.6,0.5-1.1,0.9-1.4
		c0.5-0.5,1.2-0.7,2.2-0.7c0.9,0,1.5,0.1,1.9,0.4c0.4,0.2,0.5,0.7,0.4,1.3c-0.1,0.5-0.5,0.9-1.1,1.2c-0.4,0.1-0.9,0.3-1.7,0.3
		l-1.4,0.2c-1.6,0.2-2.9,0.5-3.8,1c-1.7,0.9-2.7,2.3-3,4.2c-0.3,1.5,0,2.6,0.7,3.4c0.8,0.8,1.9,1.2,3.3,1.2c1.1,0,2.1-0.3,3.1-0.8
		c0.8-0.4,1.6-0.9,2.2-1.6c0,0.4-0.1,0.7-0.1,0.9c0,0.3,0,0.6,0.1,0.9h4.4l0.1-0.6c-0.3-0.1-0.4-0.3-0.5-0.5c-0.1-0.2-0.1-0.6,0-1.1
		c0.1-0.7,0.2-1.3,0.3-1.8l1.4-7.2C272.3,28.2,271.8,26.9,270.6,26.2z M266.8,35.1c-0.3,1.4-0.9,2.3-1.7,2.8
		c-0.8,0.5-1.7,0.8-2.6,0.8c-0.6,0-1-0.2-1.3-0.5c-0.3-0.3-0.4-0.8-0.3-1.5c0.2-0.8,0.6-1.4,1.3-1.7c0.4-0.2,1.1-0.4,2-0.6l0.9-0.2
		c0.5-0.1,0.9-0.2,1.1-0.3c0.3-0.1,0.6-0.2,0.9-0.4L266.8,35.1z"/>
	<path class="st0" d="M288.8,26.5c-0.9-0.8-2.1-1.3-3.7-1.3c-1.3,0-2.4,0.3-3.4,0.9c-0.5,0.3-1.2,0.9-1.8,1.7l0.4-2.3h-3.9l-3,15.6
		h4.1l1.6-8.4c0.2-1,0.5-1.8,0.9-2.4c0.7-1.2,1.8-1.8,3.2-1.8c1.1,0,1.8,0.4,2.1,1.2c0.1,0.4,0.1,1.1,0,1.9l-1.8,9.5h4.2l2-10.5
		C289.9,28.7,289.7,27.3,288.8,26.5z"/>
	<polygon class="st0" points="132.1,44 115,44 114.2,47.7 120.6,47.7 117.2,65.1 121.6,65.1 125,47.7 131.3,47.7 	"/>
	<path class="st0" d="M139.7,49c-2.7,0-4.8,0.8-6.5,2.5c-1.6,1.7-2.7,3.6-3.1,5.9c-0.4,2.3-0.2,4.3,0.8,5.9c1,1.6,2.8,2.4,5.5,2.4
		c2.7,0,4.8-0.8,6.5-2.4c1.6-1.6,2.7-3.6,3.1-5.9c0.4-2.3,0.2-4.2-0.8-5.9C144.3,49.8,142.4,49,139.7,49z M141.8,57.3
		c-0.3,1.6-0.9,2.8-1.7,3.6c-0.8,0.9-1.8,1.3-3,1.3c-1.2,0-2-0.4-2.5-1.3c-0.5-0.8-0.6-2.1-0.3-3.6c0.3-1.6,0.9-2.8,1.7-3.6
		c0.8-0.8,1.8-1.3,3-1.3c1.2,0,2,0.4,2.5,1.3C142,54.6,142.1,55.8,141.8,57.3z"/>
	<path class="st0" d="M158.7,58c-0.2,1-0.5,1.8-0.9,2.4c-0.7,1.1-1.8,1.7-3.2,1.7c-1.1,0-1.7-0.4-2-1.2c-0.1-0.4-0.1-1.1,0.1-2
		l1.8-9.4h-4.2l-1.8,9.4c-0.3,1.8-0.4,3.1-0.1,4c0.5,1.7,1.9,2.5,4.2,2.5c0.8,0,1.5-0.1,2.2-0.3c0.6-0.2,1.3-0.6,2.1-1.2
		c0.2-0.2,0.5-0.4,0.7-0.6c0.2-0.2,0.3-0.4,0.4-0.4l-0.4,2.2h4l3-15.6h-4.1L158.7,58z"/>
	<path class="st0" d="M177.2,49.1c0,0-0.1,0-0.2,0c-1.2,0-2.3,0.3-3.2,1c-0.5,0.4-1.2,1.1-2.1,2.1l0.5-2.7h-3.9l-3,15.6h4.1l1.5-7.5
		c0.2-1.3,0.6-2.2,1-2.8c0.8-1.1,2-1.6,3.6-1.6c0.1,0,0.3,0,0.5,0c0.2,0,0.4,0,0.7,0.1l0.8-4.2C177.4,49.1,177.2,49.1,177.2,49.1z"
		/>
	<polygon class="st0" points="181,43.9 180.3,47.6 184.4,47.6 185.1,43.9 	"/>
	<polygon class="st0" points="176.9,65.1 181,65.1 184.1,49.5 179.9,49.5 	"/>
	<path class="st0" d="M196.7,49.1c-1.3,0-2.4,0.3-3.4,0.9c-0.5,0.4-1.2,0.9-1.8,1.7l0.4-2.3H188l-3,15.6h4.1l1.6-8.4
		c0.2-1,0.5-1.8,0.9-2.4c0.7-1.2,1.8-1.8,3.2-1.8c1.1,0,1.8,0.4,2,1.2c0.1,0.4,0.1,1.1,0,1.9l-1.9,9.5h4.2l2-10.5
		c0.4-2,0.1-3.4-0.7-4.2C199.6,49.5,198.3,49.1,196.7,49.1z"/>
	<path class="st0" d="M215.6,51.7c-0.4-1.1-1.1-1.9-2-2.3c-0.5-0.2-1.2-0.4-2-0.4c-2.1,0-3.9,0.8-5.4,2.4c-1.5,1.6-2.4,3.5-2.9,5.8
		c-0.5,2.4-0.2,4.3,0.7,5.7c0.9,1.4,2.4,2.1,4.4,2.1c1.3,0,2.4-0.3,3.3-0.9c0.5-0.3,1-0.8,1.5-1.5l-0.2,1c-0.3,1.5-0.7,2.5-1.1,3.2
		c-0.7,1-1.8,1.5-3.2,1.5c-1,0-1.7-0.2-2.1-0.6c-0.2-0.2-0.3-0.6-0.4-1H202c-0.2,1.6,0.3,2.7,1.4,3.5c1.1,0.8,2.7,1.2,4.7,1.2
		c3.3,0,5.7-0.9,7.2-2.6c0.9-1,1.5-2.5,1.9-4.6l2.9-14.8h-4L215.6,51.7z M214.5,57.2c-0.3,1.6-0.9,2.7-1.7,3.4
		c-0.8,0.7-1.7,1.1-2.6,1.1c-1.4,0-2.3-0.7-2.6-2c-0.2-0.7-0.2-1.5,0-2.4c0.2-1.1,0.5-1.9,0.9-2.7c0.8-1.3,1.9-2,3.4-2
		c1.1,0,1.8,0.4,2.3,1.2C214.7,54.6,214.8,55.7,214.5,57.2z"/>
</g>
</svg>
